<?xml version="1.0" encoding="UTF-8"?>
<svg width="768" height="768" xmlns="http://www.w3.org/2000/svg" xmlns:svg="http://www.w3.org/2000/svg" version="1.1">
 <title id="titleID">connection node graph</title>

 <desc id="descID">AI-generated SVG illustration: connection node graph, created on https://svgstud.io</desc>
 <metadata>Created by https://svgstud.io and licensed under CC-BY-SA 4.0 license. Please attribute https://svgstud.io</metadata>
 <metadata>connection node graph</metadata>
 <metadata>7</metadata>
 <metadata>https://svgstud.io</metadata>
 <metadata id="uid">dfadb7e0c9bae492f6b0d2204d85f0a5471725049b901043581fbb4437f33557</metadata>
 <g class="layer" display="inline">
  <title>Layer 1</title>
  <path d="m378.27,765.67c-9.09,0.26 -15.76,-0.24 -20.06,-1.49c-3.53,-1.01 -9.15,-3.11 -12.48,-4.64c-3.34,-1.52 -9.35,-5.73 -13.37,-9.34c-4,-3.6 -8.92,-9.52 -10.91,-13.16c-1.99,-3.64 -4.12,-9.81 -4.7,-13.72c-0.59,-3.91 -0.57,-10.84 0.04,-15.41c0.63,-4.69 2.78,-11.24 4.93,-15.04c2.09,-3.7 7.46,-9.97 11.9,-13.93c4.43,-3.96 11.5,-8.89 15.7,-10.96c7.63,-3.77 7.63,-3.77 7.51,-81.89c-0.07,-42.96 -0.6,-78.49 -1.19,-78.97c-0.57,-0.47 -6.53,-1.54 -13.24,-2.37c-6.71,-0.83 -17.07,-2.61 -23.02,-3.96c-5.95,-1.33 -16.31,-4.41 -22.99,-6.82c-6.7,-2.41 -17.75,-7.33 -24.58,-10.93c-6.83,-3.6 -13.34,-6.55 -14.47,-6.55c-1.13,0 -5.91,6.18 -10.64,13.77c-4.7,7.57 -14.24,23 -21.18,34.28c-6.94,11.28 -19.86,32.03 -28.72,46.13c-8.86,14.09 -20.15,32.25 -25.1,40.36c-4.95,8.11 -9.87,16.17 -10.93,17.94c-1.05,1.77 -1.92,4.01 -1.92,5.01c-0.01,0.99 2.48,4.74 5.54,8.33c3.07,3.59 6.22,7.68 7.03,9.08c0.79,1.41 2.09,6.3 2.88,10.89c0.83,4.82 0.95,11.11 0.27,14.91c-0.65,3.61 -2.54,8.97 -4.22,11.9c-1.66,2.93 -5.32,7.6 -8.12,10.35c-2.8,2.77 -8.73,6.61 -13.21,8.55c-7.07,3.06 -9.88,3.52 -21.74,3.56c-11.82,0.05 -14.67,-0.4 -21.51,-3.32c-4.35,-1.85 -10.71,-5.83 -14.17,-8.85c-3.46,-3.01 -7.94,-8.71 -9.98,-12.65c-2.9,-5.61 -3.67,-9.11 -3.61,-16.13c0.04,-6.19 1.1,-11.35 3.4,-16.66c2.42,-5.63 5.66,-9.76 12.05,-15.39c6.21,-5.47 11.01,-8.43 16.62,-10.24c5.31,-1.72 11.23,-2.51 18.08,-2.42c10.2,0.12 10.2,0.12 14.83,-8.34c2.54,-4.65 10.78,-18.55 18.33,-30.88c7.54,-12.33 17.4,-28.19 21.88,-35.24c4.5,-7.05 15.5,-24.64 24.45,-39.08c8.93,-14.44 19.69,-31.38 23.88,-37.65c4.19,-6.25 7.61,-11.56 7.61,-11.8c0,-0.23 -5.55,-6.78 -12.33,-14.57c-6.78,-7.78 -13.15,-14.15 -14.14,-14.15c-0.99,0 -8.49,2.61 -16.66,5.82c-8.19,3.19 -31.03,11.33 -50.77,18.07c-19.73,6.74 -36.28,12.84 -36.77,13.53c-0.49,0.7 -1.63,5.3 -2.54,10.22c-0.92,4.93 -2.98,11.28 -4.59,14.09c-1.62,2.83 -5.84,7.73 -9.36,10.89c-3.54,3.15 -10.11,7.27 -14.6,9.14c-6.9,2.87 -10.11,3.4 -20.56,3.37c-11.34,-0.04 -13.31,-0.44 -23.03,-4.74c-7.56,-3.33 -12.4,-6.56 -16.72,-11.13c-3.36,-3.55 -7.3,-8.91 -8.78,-11.9c-1.49,-3 -3.46,-9.32 -4.37,-14.04c-1.22,-6.3 -1.25,-10.31 -0.1,-15.08c0.86,-3.57 3.13,-9.23 5.03,-12.56c1.91,-3.33 6.6,-8.76 10.41,-12.07c3.81,-3.32 10.47,-7.48 14.81,-9.28c6.41,-2.67 10.08,-3.27 19.66,-3.28c8.58,-0.01 14.03,0.74 20.03,2.74c6.38,2.14 10.64,4.93 18.89,12.39c10.63,9.62 10.63,9.62 16.97,7.53c3.47,-1.15 24.85,-8.83 47.48,-17.07c22.64,-8.23 42,-15.63 43.02,-16.47c1.49,-1.23 0.99,-3.78 -2.62,-13.45c-2.47,-6.56 -5.75,-17.77 -7.3,-24.88c-1.55,-7.12 -3.21,-18.49 -3.67,-25.25c-0.49,-7.02 -0.1,-17.61 0.89,-24.65c0.96,-6.79 3.21,-17.26 5,-23.27c3.26,-10.93 3.26,-10.93 0.26,-14.48c-1.66,-1.96 -9.19,-10.16 -16.75,-18.25c-7.56,-8.07 -17.8,-19.58 -22.77,-25.58c-4.96,-6 -10.05,-12.9 -11.31,-15.38c-1.25,-2.47 -2.48,-4.74 -2.72,-5.05c-0.24,-0.32 -5.09,-1.01 -10.77,-1.56c-7.36,-0.7 -13.31,-2.29 -20.67,-5.55c-6.73,-2.96 -12.4,-6.68 -16.31,-10.61c-3.28,-3.33 -7.53,-8.78 -9.41,-12.1c-1.89,-3.33 -4.07,-10.01 -4.83,-14.84c-0.92,-5.82 -0.9,-11.53 0.06,-16.85c0.79,-4.43 3.1,-10.97 5.12,-14.53c2.02,-3.56 7.14,-9.57 11.39,-13.36c4.72,-4.22 11.47,-8.48 17.42,-10.99c8.81,-3.73 10.97,-4.11 23.33,-4.11c12.29,0 14.54,0.38 22.95,3.98c5.12,2.19 12.36,6.41 16.08,9.35c4.03,3.2 8.53,8.58 11.14,13.31c2.41,4.37 5.12,11.54 6.04,15.95c1.23,5.92 1.26,10.75 0.11,18.5c-1.55,10.48 -1.55,10.48 19.36,30.43c11.5,10.97 21.88,20.65 23.07,21.54c1.2,0.88 2.6,1.6 3.1,1.6c0.49,0 5.05,-3.23 10.11,-7.16c5.08,-3.95 15.4,-10.85 22.95,-15.36c7.56,-4.5 19.82,-10.74 27.26,-13.84c7.44,-3.1 19,-7.12 25.7,-8.93c6.71,-1.81 16.71,-3.97 22.23,-4.83c5.52,-0.85 10.48,-1.88 11.03,-2.29c0.54,-0.42 1.12,-17.11 1.28,-37.08c0.3,-36.34 0.3,-36.34 -10.45,-41.9c-6.11,-3.16 -13.9,-8.65 -18.03,-12.69c-4.27,-4.18 -8.62,-10.16 -10.53,-14.48c-2.55,-5.82 -3.24,-9.93 -3.24,-19.54c0,-9.49 0.69,-13.72 3.14,-19.22c1.71,-3.88 5.56,-9.92 8.55,-13.43c2.98,-3.5 8.63,-8.55 12.55,-11.2c3.93,-2.67 10.02,-6.06 13.54,-7.53c3.53,-1.49 10.37,-3.2 15.2,-3.82c5.18,-0.65 12.15,-0.62 16.99,0.09c4.52,0.65 11.75,2.63 16.05,4.39c4.32,1.76 11.6,6.41 16.19,10.33c4.98,4.23 10.2,10.37 12.91,15.12c2.6,4.57 5.21,11.81 6.09,16.91c1.13,6.5 1.12,11.28 -0.07,17.7c-0.89,4.84 -3.28,11.72 -5.32,15.31c-2.04,3.57 -6.93,9.32 -10.87,12.76c-3.94,3.43 -10.48,7.74 -14.51,9.56c-4.03,1.83 -9.94,4 -13.11,4.82c-5.79,1.5 -5.79,1.5 -6.18,35.12c-0.24,21.72 0.16,34.51 1.13,36.13c1.06,1.78 3,2.52 6.61,2.52c2.8,0 11.49,1.17 19.29,2.59c7.8,1.41 18.87,4.07 24.59,5.91c5.74,1.82 16.23,5.98 23.33,9.24c7.1,3.25 19.23,10.16 26.98,15.38c7.92,5.32 18.82,14.3 24.91,20.53c5.97,6.09 13.44,14.45 16.59,18.6c3.15,4.14 8.52,12.79 11.92,19.22c3.4,6.42 7.82,16.71 9.81,22.86c1.98,6.14 4.37,16.08 5.32,22.1c1.71,10.93 1.71,10.93 6.15,10.92c2.45,0 9.94,-1.18 16.64,-2.63c6.7,-1.44 25.43,-5.18 41.59,-8.32c16.16,-3.13 30.85,-6 32.63,-6.37c3.01,-0.62 3.23,-1.35 3.23,-10.66c0,-5.5 1.02,-13.07 2.27,-16.82c1.26,-3.77 3.74,-8.92 5.54,-11.46c1.79,-2.54 5.91,-6.75 9.15,-9.37c3.24,-2.61 9.31,-6.34 13.47,-8.3c6.42,-3 9.34,-3.54 19.06,-3.56c9.51,-0.03 12.89,0.58 19.75,3.43c4.55,1.91 11.34,6.28 15.09,9.73c3.74,3.43 9.05,9.94 11.8,14.47c4.78,7.89 4.98,8.76 4.98,21.68c0.01,11.57 -0.46,14.3 -3.37,19.54c-1.86,3.36 -6.88,9.23 -11.17,13.04c-4.27,3.83 -11.11,8.44 -15.17,10.25c-5.85,2.6 -9.52,3.29 -17.52,3.28c-5.56,0 -12.53,-0.6 -15.5,-1.35c-2.97,-0.73 -9.58,-3.9 -14.71,-7.03c-5.12,-3.14 -10.61,-5.7 -12.2,-5.7c-1.58,0 -15.29,2.63 -30.46,5.82c-15.17,3.2 -38.88,8.15 -52.67,10.97c-13.8,2.83 -25.56,5.56 -26.11,6.05c-0.57,0.5 -2.38,7.19 -4.04,14.85c-1.65,7.68 -4.9,18.59 -7.21,24.26c-2.32,5.66 -4.22,11.28 -4.22,12.47c0,1.61 3.24,3.06 12.55,5.63c6.9,1.9 33.2,9.44 58.44,16.77c25.24,7.33 48.89,14.02 52.54,14.86c6.67,1.55 6.67,1.55 13.45,-3.79c3.74,-2.93 10.43,-6.93 14.86,-8.87c6.8,-2.99 9.85,-3.54 19.53,-3.5c9.49,0.04 13.02,0.68 20.41,3.69c5.61,2.28 11.4,5.98 15.52,9.92c3.63,3.46 8.17,9.4 10.14,13.21c1.95,3.82 4.14,10.29 4.89,14.4c0.83,4.63 0.85,10.26 0.01,14.79c-0.73,4.02 -2.61,9.9 -4.17,13.07c-1.58,3.16 -5.95,8.7 -9.74,12.33c-3.79,3.61 -10.12,8.06 -14.08,9.87c-5.44,2.49 -10.05,3.43 -18.8,3.87c-8.12,0.4 -14.01,-0.05 -19.6,-1.51c-4.53,-1.17 -11.16,-4.31 -15.3,-7.24c-4.03,-2.84 -9.57,-7.88 -12.3,-11.21c-2.74,-3.32 -5.74,-8.34 -6.67,-11.16c-0.93,-2.82 -2.07,-9.71 -2.52,-15.31c-0.83,-10.2 -0.83,-10.2 -21.63,-15.75c-11.44,-3.06 -41.12,-11.63 -65.97,-19.07c-45.17,-13.51 -45.17,-13.51 -50.19,-7.97c-2.77,3.05 -12.3,12.22 -21.21,20.41c-16.21,14.86 -16.21,14.86 -7.08,25c5.02,5.56 28.7,32.61 52.62,60.09c23.93,27.48 45.98,52.64 49,55.88c5.49,5.92 5.49,5.92 19.13,6.55c11.6,0.55 15.04,1.26 22.95,4.73c5.84,2.58 11.1,6.09 14.17,9.47c2.7,2.96 6.38,7.97 8.19,11.15c2.54,4.41 3.46,8.55 3.93,17.55c0.59,10.99 0.33,12.34 -3.63,19.86c-2.34,4.45 -7.08,10.61 -10.55,13.72c-3.48,3.1 -9.88,7.14 -14.21,8.97c-6.88,2.9 -9.71,3.32 -22.23,3.27c-11.59,-0.04 -15.65,-0.58 -21.11,-2.82c-3.73,-1.52 -9.79,-5.25 -13.48,-8.28c-3.7,-3.04 -8.23,-8.39 -10.07,-11.92c-2.58,-4.93 -3.36,-8.64 -3.37,-16.11c-0.01,-5.33 0.96,-12.63 2.15,-16.23c1.2,-3.59 4.75,-9.6 7.89,-13.33c3.15,-3.74 5.72,-7.18 5.72,-7.64c0,-0.46 -5.99,-7.39 -13.31,-15.41c-7.31,-8.01 -20.06,-22.28 -28.32,-31.7c-8.26,-9.42 -26.76,-30.75 -41.13,-47.41c-14.36,-16.66 -27.69,-31.89 -29.64,-33.87c-3.56,-3.57 -3.56,-3.57 -15.27,1.68c-6.44,2.9 -18.27,7.21 -26.27,9.58c-8,2.37 -18.43,4.91 -23.16,5.64c-4.73,0.73 -11.01,1.65 -13.97,2.06c-4.24,0.6 -5.56,1.45 -6.3,4.05c-0.5,1.81 -0.53,17.21 -0.04,34.22c0.49,17 0.9,51.16 0.92,75.91c0.03,45 0.03,45 6.84,47.26c3.74,1.24 9.87,3.96 13.58,6.05c3.73,2.09 8.82,5.88 11.33,8.43c2.51,2.55 6.55,8.41 9.01,13.02c4.06,7.65 4.45,9.53 4.45,21.23c0,11.88 -0.34,13.47 -4.6,21.14c-2.52,4.56 -7.56,11.05 -11.17,14.4c-3.61,3.34 -10.58,7.92 -15.47,10.16c-7.86,3.6 -10.51,4.13 -22.53,4.47l-0.11,0.06zm-38.72,-34.83c0.79,-0.44 1.43,-5.28 1.43,-10.76c0,-8.6 0.62,-11.1 4.53,-18.18c3.2,-5.8 8.1,-11.38 16.76,-18.99c12.25,-10.78 12.25,-10.78 6.32,-10.06c-3.26,0.38 -9.51,2.18 -13.91,3.97c-4.39,1.79 -11.4,6.16 -15.57,9.69c-4.19,3.54 -9.12,9.15 -10.99,12.48c-2.34,4.18 -3.43,8.39 -3.5,13.61c-0.11,7.39 0.03,7.66 6.68,13.29c3.74,3.16 7.44,5.39 8.23,4.96l0.02,-0.01zm-242.36,-42.92c0.79,0 1.43,-1.7 1.43,-3.79c0,-2.2 4.17,-10.92 9.98,-20.82c5.48,-9.37 11.64,-19.05 13.7,-21.51c3.71,-4.48 3.71,-4.48 -1.33,-4.88c-2.8,-0.22 -7.8,0.69 -11.19,2.04c-3.38,1.35 -8.2,4 -10.71,5.89c-2.52,1.91 -6.55,6.98 -8.96,11.3c-2.62,4.69 -4.39,9.83 -4.39,12.8c0,2.73 0.92,6.92 2.02,9.29c1.12,2.38 3.37,5.54 5.02,7.01c1.65,1.47 3.64,2.68 4.43,2.68l0,-0.01zm494.96,-16.67c1.99,0.01 2.42,-2.04 2.88,-13.76c0.46,-12.19 0.98,-14.45 4.4,-19.69c2.14,-3.24 7.77,-10.07 12.53,-15.17c4.78,-5.09 8.3,-9.78 7.86,-10.42c-0.44,-0.64 -2.85,-1.17 -5.38,-1.15c-2.51,0.01 -7.8,1.36 -11.75,3.01c-3.94,1.64 -9.95,5.71 -13.37,9.02c-3.41,3.32 -7.76,9.03 -9.67,12.7c-2.45,4.69 -3.47,8.92 -3.48,14.36c-0.01,4.92 0.89,9.21 2.5,11.87c1.38,2.29 4.45,5.32 6.81,6.7c2.37,1.4 5.36,2.54 6.65,2.54l0.02,-0.01zm-418.16,-19.21c-0.39,0 -1.74,-1.77 -2.98,-3.93c-1.26,-2.15 -2.08,-5.42 -1.84,-7.24c0.36,-2.65 3.28,-4.88 14.79,-11.25c7.89,-4.36 27.92,-15.16 44.51,-24c16.59,-8.84 35.39,-18.52 41.79,-21.5c6.38,-3 12.33,-5.05 13.21,-4.56c0.87,0.49 1.58,3.01 1.58,5.61c-0.01,2.6 -0.39,5.96 -0.85,7.46c-0.44,1.5 -2.54,3.51 -4.63,4.48c-2.11,0.96 -11.24,5.84 -20.32,10.83c-9.06,5 -27.82,15.17 -41.66,22.6c-13.84,7.43 -29.15,15.31 -34.02,17.5c-4.88,2.2 -9.18,4 -9.58,4zm530.05,-154.72c13.38,-0.44 17.54,-1.06 23.48,-3.59c3.97,-1.68 9.08,-4.79 11.37,-6.93c2.28,-2.13 3.86,-4.13 3.51,-4.43c-0.34,-0.32 -9.79,0.05 -20.98,0.82c-19.53,1.35 -20.69,1.28 -28.62,-1.44c-4.55,-1.55 -11.34,-4.51 -15.12,-6.59c-6.85,-3.77 -6.85,-3.77 -6.85,1.67c0.01,3.14 1.2,7.18 2.83,9.56c1.55,2.27 5.36,5.78 8.48,7.79c5.58,3.61 5.89,3.65 21.91,3.14l-0.01,0zm-677.69,-2.88c1.03,0 7.82,-2.31 15.09,-5.13c7.27,-2.82 14.24,-5.14 15.49,-5.14c1.25,-0.01 8.13,1.81 15.3,4.05c8.25,2.58 14.05,3.73 15.77,3.14c2.67,-0.92 2.67,-1 -0.13,-2.9c-1.58,-1.06 -9.97,-5.06 -18.64,-8.87c-8.68,-3.82 -16.82,-6.93 -18.11,-6.94c-1.29,0 -6.63,1.44 -11.86,3.2c-5.25,1.77 -12.1,3.2 -15.23,3.2c-5.28,0 -5.71,-0.27 -5.71,-3.54c0,-3.28 1.32,-4.1 17.57,-10.9c9.67,-4.05 19,-7.35 20.77,-7.35c1.76,0.01 9.68,2.32 17.6,5.14c7.92,2.82 15.36,5.13 16.52,5.13c1.28,0 2.12,-1.22 2.12,-3.05c0,-1.82 -1.41,-3.88 -3.44,-5.07c-1.89,-1.11 -9.81,-4.57 -17.57,-7.69c-14.13,-5.66 -14.13,-5.66 -14.84,-11.26c-0.7,-5.52 -0.79,-5.6 -5.74,-5.19c-2.77,0.23 -9.22,2.45 -14.34,4.92c-5.12,2.47 -11.76,6.6 -14.73,9.16c-2.97,2.55 -6.68,7.01 -8.25,9.9c-1.56,2.88 -2.84,6.84 -2.84,8.79c0,1.95 2.01,7.68 4.47,12.72c2.45,5.05 5.46,10.2 6.67,11.43c1.22,1.23 3.04,2.24 4.06,2.24l0,0.01zm670.32,-29.69c6.38,0.22 6.7,0.03 20.01,-11.92c7.43,-6.68 13.24,-12.35 12.88,-12.63c-0.36,-0.28 -2.05,-1.17 -3.77,-1.96c-1.74,-0.81 -6.65,-1.46 -10.94,-1.46c-4.29,0 -10.5,0.85 -13.78,1.88c-3.3,1.04 -8.81,3.69 -12.23,5.89c-3.43,2.2 -8.2,6.46 -10.61,9.44c-2.39,2.99 -4.56,6.24 -4.8,7.24c-0.32,1.33 1.81,2 8.17,2.55c4.73,0.41 11.52,0.85 15.09,0.96l-0.02,0.01zm-352.23,-19.39c0.93,-0.28 1.74,-5.19 1.98,-12.26c0.37,-10.8 0.67,-11.89 3.59,-12.94c1.74,-0.63 10.67,-1.76 19.83,-2.51c9.15,-0.77 18.97,-2.1 21.81,-2.99c2.85,-0.88 12.76,-7.01 22.04,-13.63c9.26,-6.61 18.8,-12.74 21.2,-13.59c3.05,-1.09 7.69,-1.26 15.7,-0.54c6.96,0.63 12.39,0.55 13.98,-0.22c1.43,-0.68 3.9,-3.52 5.49,-6.3c2.9,-5.06 2.9,-5.06 0,-7.65c-1.58,-1.41 -3.53,-2.58 -4.32,-2.58c-0.79,0 -2.72,-1.15 -4.3,-2.56c-2.61,-2.33 -2.87,-4.27 -2.87,-21.87c0,-11.98 0.62,-20.36 1.63,-22.1c0.9,-1.54 4.13,-5.23 7.17,-8.21c4.82,-4.72 5.54,-6.21 5.54,-11.6c0,-3.4 -0.77,-6.87 -1.72,-7.71c-0.95,-0.85 -3.11,-1.54 -4.83,-1.54c-1.71,0 -10.4,1.47 -19.32,3.27c-8.92,1.81 -22.59,3.63 -30.37,4.05c-13.34,0.72 -14.43,0.59 -18.76,-2.27c-2.52,-1.67 -12.65,-9.33 -22.52,-17.03c-9.87,-7.7 -20.62,-16.31 -23.92,-19.13c-5.99,-5.13 -5.99,-5.13 -15.52,-1.51c-5.23,1.99 -10.77,5.02 -12.29,6.75c-1.91,2.17 -2.78,5.19 -2.8,9.7c-0.01,3.61 -0.96,10.6 -2.11,15.53c-1.82,7.87 -2.83,9.57 -8.16,13.86c-3.34,2.69 -11.27,7.1 -17.61,9.8c-6.34,2.69 -18.17,6.78 -26.29,9.06c-10.48,2.96 -15.57,5.1 -17.57,7.35c-2.07,2.33 -2.81,5.19 -2.81,10.63c0,4.09 0.57,7.75 1.28,8.14c0.69,0.38 1.61,-0.45 2.01,-1.85c0.52,-1.73 1.96,-2.55 4.52,-2.55c2.08,0 9.22,-1.22 15.88,-2.72c6.65,-1.49 12.99,-2.4 14.1,-2.02c1.46,0.5 1.81,2.37 1.29,7.14c-0.7,6.46 -0.7,6.46 17.91,23.6c18.6,17.16 18.6,17.16 19.39,36.9c0.43,10.87 1.25,20.74 1.79,21.96c0.56,1.23 4.92,4.56 9.69,7.42c4.78,2.84 9.39,4.97 10.25,4.72l0.02,0zm5.56,-39.34c-1.36,0 -1.88,-2.96 -1.95,-11.21c-0.06,-6.16 -0.57,-12.29 -1.16,-13.62c-0.57,-1.32 -4.12,-4.24 -7.86,-6.51c-3.74,-2.26 -13.55,-10.07 -21.78,-17.36c-8.25,-7.29 -14.99,-14.31 -14.99,-15.61c0,-1.28 1.28,-3.34 2.83,-4.57c1.55,-1.23 11.07,-5.98 21.15,-10.56c18.33,-8.33 18.33,-8.33 19.23,-25.63c0.5,-9.52 0.99,-18.02 1.08,-18.9c0.1,-0.88 0.98,-1.6 1.96,-1.6c0.99,0 12.07,8.65 24.64,19.22c13.42,11.29 24.08,19.27 25.81,19.34c1.63,0.06 6.2,0.01 10.14,-0.1c3.94,-0.12 12.02,-1.03 17.93,-2.04c5.91,-1 11.24,-1.82 11.83,-1.82c0.59,0 1.06,10.81 1.05,24.02c0,13.21 -0.56,24.79 -1.22,25.73c-0.66,0.94 -3.5,2.95 -6.31,4.48c-2.81,1.52 -12.28,8.39 -21.02,15.26c-8.75,6.86 -18.36,13.58 -21.32,14.94c-3,1.36 -12.72,3.37 -21.8,4.5c-9.01,1.13 -17.21,2.04 -18.23,2.04l-0.01,0zm-143.57,-43.72c0.54,0.09 1.31,-0.86 1.69,-2.09c0.39,-1.23 1.13,-6.57 1.63,-11.85c0.52,-5.28 2.14,-14.22 3.6,-19.86c1.46,-5.64 4.69,-15.44 7.18,-21.78c2.5,-6.34 7.41,-16.43 10.93,-22.42c3.51,-6 10.21,-15.5 14.87,-21.14c4.68,-5.64 10.73,-13.13 13.47,-16.66c3.77,-4.84 4.79,-7.27 4.19,-9.93c-0.5,-2.22 -1.72,-3.52 -3.28,-3.52c-1.36,0 -4.99,1.64 -8.07,3.65c-3.07,2 -9.26,7.05 -13.75,11.21c-4.49,4.15 -10.35,10.15 -13.02,13.33c-2.67,3.18 -7.51,9.8 -10.76,14.74c-3.23,4.93 -7.89,13.52 -10.34,19.07c-2.44,5.55 -5.44,14.2 -6.63,19.22c-1.2,5.02 -2.52,15.18 -2.94,22.58c-0.42,7.39 -0.19,15.76 0.52,18.58c1.05,4.25 1.98,5.25 5.49,5.93c2.34,0.45 4.69,0.88 5.22,0.96l0,-0.02zm498.27,-31.88c0.5,0 7.2,-4.01 14.87,-8.91c7.69,-4.91 15.7,-10.75 17.83,-13.01c2.6,-2.75 3.37,-4.51 2.39,-5.38c-0.99,-0.88 -5.31,-0.82 -13.35,0.18c-6.54,0.82 -15.83,1.49 -20.65,1.49c-4.82,0 -15.37,-1.2 -23.46,-2.68c-9.69,-1.77 -15.19,-2.24 -16.12,-1.41c-0.77,0.69 -1.02,2.4 -0.53,3.78c0.75,2.1 2.7,2.64 11.97,3.34c6.09,0.45 13.67,1.46 16.82,2.23c3.15,0.77 6.54,2 7.53,2.72c1.09,0.79 1.79,4.48 1.79,9.47c0,4.5 0.4,8.17 0.9,8.17l0.01,0.01zm-37.03,-38.44c0.85,0 7.23,-1.68 14.17,-3.73c6.96,-2.05 16.19,-4.14 20.52,-4.64c4.33,-0.5 8.36,-1.56 8.93,-2.36c0.59,-0.79 1.08,-6.2 1.08,-12.02c0.03,-10.57 0.03,-10.57 -4.09,-10.57c-2.28,0 -6.96,0.88 -10.4,1.96c-3.46,1.08 -9.71,4.05 -13.91,6.62c-4.19,2.56 -9.57,7.18 -11.93,10.25c-2.37,3.06 -4.66,7.59 -5.11,10.03c-0.5,2.77 -0.22,4.45 0.73,4.45l0.01,0.01zm-460.79,-21.78c1,-0.74 5.84,-6.79 10.76,-13.45c8.92,-12.1 8.92,-12.1 -6.9,-27.19c-8.7,-8.3 -18.17,-17.84 -21.02,-21.18c-2.85,-3.34 -5.59,-6.09 -6.08,-6.09c-0.47,0 -4.5,3.02 -8.95,6.73c-4.43,3.7 -9.32,7.35 -10.86,8.14c-2.37,1.19 -2.54,1.87 -1.16,4.48c0.9,1.69 7.9,9.99 15.56,18.45c7.66,8.46 16.82,19 20.38,23.42c4.89,6.11 6.88,7.73 8.27,6.69zm-111.64,-83.29c3.15,0 3.38,-0.5 3.51,-8.01c0.07,-4.41 0.56,-9.29 1.08,-10.85c0.52,-1.58 9.51,-10.66 20.01,-20.21c10.94,-9.96 18.66,-17.96 18.08,-18.77c-0.63,-0.92 -3.69,-1.13 -8.72,-0.6c-4.27,0.45 -10.68,2.05 -14.27,3.55c-3.59,1.51 -10.04,5.61 -14.34,9.12c-4.3,3.51 -9.45,8.88 -11.44,11.93c-2.09,3.18 -3.97,8.47 -4.43,12.45c-0.47,4.06 -0.06,8.98 0.99,11.92c0.99,2.74 2.78,6 3.99,7.23c1.2,1.23 3.71,2.24 5.55,2.24l-0.01,0zm231.99,-124.31c0.85,-0.01 4.13,-1.31 7.29,-2.88c4.23,-2.13 8.56,-6.64 16.49,-17.18c5.91,-7.87 14.84,-18.39 19.83,-23.37c9.06,-9.07 9.06,-9.07 2.15,-9.02c-3.81,0.04 -9.38,0.85 -12.38,1.79c-3,0.96 -8.13,3.38 -11.39,5.39c-3.27,2.01 -8.46,5.96 -11.56,8.78c-3.11,2.82 -7.5,8.58 -9.78,12.81c-3.03,5.64 -4.13,9.6 -4.13,14.84c0,3.93 0.43,7.55 0.96,8.01c0.52,0.47 1.65,0.85 2.51,0.83l0.01,0z" fill="black" fill-opacity="100" fill-rule="evenodd" id="svg_2" stroke-width="30"/>
 </g>
</svg>